<mxfile host="65bd71144e">
    <diagram id="BDZfrKnMY1iZABXC7F6z" name="Page-1">
        <mxGraphModel dx="1076" dy="838" grid="1" gridSize="10" guides="1" tooltips="1" connect="1" arrows="1" fold="1" page="1" pageScale="1" pageWidth="1600" pageHeight="1200" math="0" shadow="0">
            <root>
                <mxCell id="0"/>
                <mxCell id="1" parent="0"/>
                <mxCell id="6" value="" style="rounded=0;whiteSpace=wrap;html=1;" vertex="1" parent="1">
                    <mxGeometry x="350" y="120" width="530" height="640" as="geometry"/>
                </mxCell>
                <mxCell id="5" value="" style="rounded=0;whiteSpace=wrap;html=1;" vertex="1" parent="1">
                    <mxGeometry x="460" y="240" width="310" height="390" as="geometry"/>
                </mxCell>
                <mxCell id="2" value="&lt;b&gt;Processing Unit #1&lt;/b&gt;" style="html=1;" vertex="1" parent="1">
                    <mxGeometry x="555" y="310" width="120" height="50" as="geometry"/>
                </mxCell>
                <mxCell id="3" value="&lt;b&gt;Processing Unit #2&lt;/b&gt;" style="html=1;" vertex="1" parent="1">
                    <mxGeometry x="555" y="410" width="120" height="50" as="geometry"/>
                </mxCell>
                <mxCell id="4" value="&lt;b&gt;Virtualized &lt;br&gt;Middleware&lt;/b&gt;" style="html=1;" vertex="1" parent="1">
                    <mxGeometry x="555" y="520" width="120" height="50" as="geometry"/>
                </mxCell>
                <mxCell id="7" value="&lt;b&gt;Users&lt;br&gt;API&lt;br&gt;Gateway&lt;/b&gt;" style="rounded=0;whiteSpace=wrap;html=1;" vertex="1" parent="1">
                    <mxGeometry x="430" y="320" width="70" height="80" as="geometry"/>
                </mxCell>
                <mxCell id="9" value="&lt;b&gt;Integration&lt;br&gt;API&lt;br&gt;Gateway&lt;/b&gt;" style="rounded=0;whiteSpace=wrap;html=1;" vertex="1" parent="1">
                    <mxGeometry x="430" y="460" width="70" height="80" as="geometry"/>
                </mxCell>
                <mxCell id="10" value="Public" style="text;html=1;strokeColor=none;fillColor=none;align=center;verticalAlign=middle;whiteSpace=wrap;rounded=0;" vertex="1" parent="1">
                    <mxGeometry x="380" y="140" width="60" height="30" as="geometry"/>
                </mxCell>
                <mxCell id="11" value="Private" style="text;html=1;strokeColor=none;fillColor=none;align=center;verticalAlign=middle;whiteSpace=wrap;rounded=0;" vertex="1" parent="1">
                    <mxGeometry x="480" y="250" width="60" height="30" as="geometry"/>
                </mxCell>
            </root>
        </mxGraphModel>
    </diagram>
</mxfile>